{
  "asset": {
    "version": "2.0",
    "generator": "THREE.GLTFExporter r167"
  },
  "scenes": [
    {
      "name": "Scene",
      "nodes": [
        5
      ]
    }
  ],
  "scene": 0,
  "nodes": [
    {
      "matrix": [
        1,
        0,
        0,
        0,
        0,
        -1.3435885648505064e-7,
        1.0000001343588565,
        0,
        0,
        -1.0000001343588565,
        -1.3435885648505064e-7,
        0,
        0,
        0,
        0,
        1
      ],
      "name": "forward",
      "extras": {
        "name": "前"
      },
      "mesh": 0
    },
    {
      "matrix": [
        1,
        0,
        0,
        0,
        0,
        -1.3435885648505064e-7,
        1.0000001343588565,
        0,
        0,
        -1.0000001343588565,
        -1.3435885648505064e-7,
        0,
        0,
        0,
        0,
        1
      ],
      "name": "back",
      "extras": {
        "name": "后"
      },
      "mesh": 1
    },
    {
      "matrix": [
        1,
        0,
        0,
        0,
        0,
        -1.3435885648505064e-7,
        -1.0000001343588565,
        0,
        0,
        1.0000001343588565,
        -1.3435885648505064e-7,
        0,
        0,
        -0.08202649652957916,
        -0.30236536264419556,
        1
      ],
      "name": "空物体001",
      "extras": {
        "name": "空物体.001"
      }
    },
    {
      "matrix": [
        1,
        0,
        0,
        0,
        0,
        -1.3435885648505064e-7,
        1.0000001343588565,
        0,
        0,
        -1.0000001343588565,
        -1.3435885648505064e-7,
        0,
        0,
        0,
        0,
        1
      ],
      "name": "ring",
      "extras": {
        "name": "环"
      },
      "mesh": 2,
      "children": [
        2
      ]
    },
    {
      "matrix": [
        0,
        -1,
        0,
        0,
        0,
        0,
        1,
        0,
        -1,
        0,
        0,
        0,
        0,
        0.1787118911743164,
        -0.14732499420642853,
        1
      ],
      "name": "needle",
      "extras": {
        "name": "针"
      },
      "mesh": 3
    },
    {
      "name": "baji.glb",
      "children": [
        0,
        1,
        3,
        4
      ]
    }
  ],
  "bufferViews": [
    {
      "buffer": 0,
      "byteOffset": 0,
      "byteLength": 29580,
      "target": 34962,
      "byteStride": 12
    },
    {
      "buffer": 0,
      "byteOffset": 29580,
      "byteLength": 29580,
      "target": 34962,
      "byteStride": 12
    },
    {
      "buffer": 0,
      "byteOffset": 59160,
      "byteLength": 19720,
      "target": 34962,
      "byteStride": 8
    },
    {
      "buffer": 0,
      "byteOffset": 78880,
      "byteLength": 29184,
      "target": 34963
    },
    {
      "buffer": 0,
      "byteOffset": 108064,
      "byteLength": 38892,
      "target": 34962,
      "byteStride": 12
    },
    {
      "buffer": 0,
      "byteOffset": 146956,
      "byteLength": 38892,
      "target": 34962,
      "byteStride": 12
    },
    {
      "buffer": 0,
      "byteOffset": 185848,
      "byteLength": 25928,
      "target": 34962,
      "byteStride": 8
    },
    {
      "buffer": 0,
      "byteOffset": 211776,
      "byteLength": 38496,
      "target": 34963
    },
    {
      "buffer": 0,
      "byteOffset": 250272,
      "byteLength": 13848,
      "target": 34962,
      "byteStride": 12
    },
    {
      "buffer": 0,
      "byteOffset": 264120,
      "byteLength": 13848,
      "target": 34962,
      "byteStride": 12
    },
    {
      "buffer": 0,
      "byteOffset": 277968,
      "byteLength": 9232,
      "target": 34962,
      "byteStride": 8
    },
    {
      "buffer": 0,
      "byteOffset": 287200,
      "byteLength": 12288,
      "target": 34963
    },
    {
      "buffer": 0,
      "byteOffset": 299488,
      "byteLength": 44748,
      "target": 34962,
      "byteStride": 12
    },
    {
      "buffer": 0,
      "byteOffset": 344236,
      "byteLength": 44748,
      "target": 34962,
      "byteStride": 12
    },
    {
      "buffer": 0,
      "byteOffset": 388984,
      "byteLength": 29832,
      "target": 34962,
      "byteStride": 8
    },
    {
      "buffer": 0,
      "byteOffset": 418816,
      "byteLength": 43008,
      "target": 34963
    }
  ],
  "buffers": [
    {
      "byteLength": 461824,
      "uri": "data:application/octet-stream;base64,"
    }
  ],
  "accessors": [
    {
      "bufferView": 0,
      "componentType": 5126,
      "count": 2465,
      "max": [
        0.8732917904853821,
        0.0276419036090374,
        0.8732917904853821
      ],
      "min": [
        -0.8732917904853821,
        -0.08890669792890549,
        -0.8732917904853821
      ],
      "type": "VEC3"
    },
    {
      "bufferView": 1,
      "componentType": 5126,
      "count": 2465,
      "max": [
        0.9999946355819702,
        1,
        0.9999946355819702
      ],
      "min": [
        -0.9999946355819702,
        -0.9999815225601196,
        -0.9999946355819702
      ],
      "type": "VEC3"
    },
    {
      "bufferView": 2,
      "componentType": 5126,
      "count": 2465,
      "max": [
        0.925000011920929,
        1
      ],
      "min": [
        0.07003126293420792,
        0.001684427261352539
      ],
      "type": "VEC2"
    },
    {
      "bufferView": 3,
      "componentType": 5123,
      "count": 14592,
      "max": [
        2464
      ],
      "min": [
        0
      ],
      "type": "SCALAR"
    },
    {
      "bufferView": 4,
      "componentType": 5126,
      "count": 3241,
      "max": [
        0.8439038991928101,
        -0.04858645051717758,
        0.8439038991928101
      ],
      "min": [
        -0.8439038991928101,
        -0.09410557150840759,
        -0.8439038991928101
      ],
      "type": "VEC3"
    },
    {
      "bufferView": 5,
      "componentType": 5126,
      "count": 3241,
      "max": [
        0.9999908208847046,
        0.36492377519607544,
        0.9999908208847046
      ],
      "min": [
        -0.9999908208847046,
        -0.9999992847442627,
        -0.9999908208847046
      ],
      "type": "VEC3"
    },
    {
      "bufferView": 6,
      "componentType": 5126,
      "count": 3241,
      "max": [
        0.9999000430107117,
        0.9998999834060669
      ],
      "min": [
        0.00010003908391809091,
        0.00009995698928833008
      ],
      "type": "VEC2"
    },
    {
      "bufferView": 7,
      "componentType": 5123,
      "count": 19248,
      "max": [
        3240
      ],
      "min": [
        0
      ],
      "type": "SCALAR"
    },
    {
      "bufferView": 8,
      "componentType": 5126,
      "count": 1154,
      "max": [
        0.22447115182876587,
        -0.08186352252960205,
        -0.2643141448497772
      ],
      "min": [
        -0.22447115182876587,
        -0.1573915183544159,
        -0.33796069025993347
      ],
      "type": "VEC3"
    },
    {
      "bufferView": 9,
      "componentType": 5126,
      "count": 1154,
      "max": [
        0.0846024751663208,
        0.9996033310890198,
        0.9996429085731506
      ],
      "min": [
        -0.0846024751663208,
        -0.9984599947929382,
        -0.9995954632759094
      ],
      "type": "VEC3"
    },
    {
      "bufferView": 10,
      "componentType": 5126,
      "count": 1154,
      "max": [
        0,
        1
      ],
      "min": [
        0,
        1
      ],
      "type": "VEC2"
    },
    {
      "bufferView": 11,
      "componentType": 5123,
      "count": 6144,
      "max": [
        1153
      ],
      "min": [
        0
      ],
      "type": "SCALAR"
    },
    {
      "bufferView": 12,
      "componentType": 5126,
      "count": 3729,
      "max": [
        0.13334476947784424,
        0.04784856364130974,
        0.4964400827884674
      ],
      "min": [
        -0.1402103155851364,
        -0.04604378715157509,
        -0.47057804465293884
      ],
      "type": "VEC3"
    },
    {
      "bufferView": 13,
      "componentType": 5126,
      "count": 3729,
      "max": [
        0.9999984502792358,
        0.9999997615814209,
        0.9978429079055786
      ],
      "min": [
        -0.9999985694885254,
        -0.9999958276748657,
        -0.9978429079055786
      ],
      "type": "VEC3"
    },
    {
      "bufferView": 14,
      "componentType": 5126,
      "count": 3729,
      "max": [
        1.0000001192092896,
        1
      ],
      "min": [
        0,
        -1.1920928955078125e-7
      ],
      "type": "VEC2"
    },
    {
      "bufferView": 15,
      "componentType": 5123,
      "count": 21504,
      "max": [
        3728
      ],
      "min": [
        0
      ],
      "type": "SCALAR"
    }
  ],
  "materials": [
    {
      "pbrMetallicRoughness": {
        "metallicFactor": 1,
        "roughnessFactor": 0.5,
        "baseColorTexture": {
          "index": 0,
          "texCoord": 0
        }
      },
      "doubleSided": true,
      "name": "front"
    },
    {
      "pbrMetallicRoughness": {
        "baseColorFactor": [
          0.800000011920929,
          0.800000011920929,
          0.800000011920929,
          1
        ],
        "metallicFactor": 1,
        "roughnessFactor": 0.15000000596046448
      },
      "doubleSided": true,
      "name": "metal"
    }
  ],
  "textures": [
    {
      "sampler": 0,
      "source": 0,
      "name": "1539507278773"
    }
  ],
  "samplers": [
    {
      "magFilter": 9728,
      "minFilter": 9984,
      "wrapS": 10497,
      "wrapT": 10497
    }
  ],
  "images": [
    {
      "mimeType": "image/jpeg",
      "uri": "data:image/jpeg;base64,"
    }
  ],
  "meshes": [
    {
      "primitives": [
        {
          "mode": 4,
          "attributes": {
            "POSITION": 0,
            "NORMAL": 1,
            "TEXCOORD_0": 2
          },
          "indices": 3,
          "material": 0
        }
      ]
    },
    {
      "primitives": [
        {
          "mode": 4,
          "attributes": {
            "POSITION": 4,
            "NORMAL": 5,
            "TEXCOORD_0": 6
          },
          "indices": 7,
          "material": 1
        }
      ]
    },
    {
      "primitives": [
        {
          "mode": 4,
          "attributes": {
            "POSITION": 8,
            "NORMAL": 9,
            "TEXCOORD_0": 10
          },
          "indices": 11,
          "material": 1
        }
      ]
    },
    {
      "primitives": [
        {
          "mode": 4,
          "attributes": {
            "POSITION": 12,
            "NORMAL": 13,
            "TEXCOORD_0": 14
          },
          "indices": 15,
          "material": 1
        }
      ]
    }
  ]
}